<svg width="1031" height="581" viewBox="0 0 1031 581" fill="none" xmlns="http://www.w3.org/2000/svg">
<g clip-path="url(#clip0_9_42)">
<path d="M17.1249 7.00231C19.3315 2.68582 23.7926 0 28.5895 0L27.0066 4.84406C25.3756 9.87997 26.9106 15.5394 31.1319 18.8007C33.8182 20.911 36.2646 24.4122 36.3605 30.1675C36.6004 43.5966 24.8479 44.8436 21.8259 44.7956C19.0437 44.7477 8.25064 45.563 7.19532 30.1675C7.05141 27.8174 7.5311 25.3714 8.63439 23.2611L17.077 6.95435L17.1249 7.00231Z" fill="#1F1A1A"/>
<path d="M58.2347 7.00231C60.4892 2.68582 64.9024 0 69.7473 0L68.1643 4.84406C66.5333 9.87997 68.0683 15.5394 72.2896 18.8007C74.9759 20.911 77.4223 24.4122 77.5182 30.1675C77.7581 43.5966 66.0057 44.8436 62.9836 44.7956C60.2014 44.7477 49.4084 45.563 48.353 30.1675C48.2091 27.8174 48.6888 25.3714 49.7921 23.2611L58.2347 6.95435V7.00231Z" fill="#1F1A1A"/>
<path d="M975.02 573.998C972.813 578.266 968.352 581 963.555 581L965.138 576.156C966.769 571.12 965.234 565.461 961.013 562.199C958.327 560.089 955.88 556.588 955.784 550.832C955.545 537.403 967.297 536.156 970.319 536.204C973.101 536.252 983.894 535.437 984.95 550.832C985.094 553.183 984.614 555.629 983.511 557.739L975.068 574.046L975.02 573.998Z" fill="#1F1A1A"/>
<path d="M933.911 573.998C931.704 578.266 927.243 581 922.446 581L924.029 576.156C925.66 571.12 924.125 565.461 919.904 562.199C917.217 560.089 914.771 556.588 914.675 550.832C914.435 537.403 926.188 536.156 929.21 536.204C931.992 536.252 942.785 535.437 943.84 550.832C943.984 553.183 943.505 555.629 942.401 557.739L933.959 574.046L933.911 573.998Z" fill="#1F1A1A"/>
<path d="M1031.05 96.5935H45.7627V514.382H1031.05V96.5935Z" fill="#802E2E"/>
<path d="M990.418 63.7402H3.59766V482.248H990.418V63.7402Z" stroke="#1F1A1A" stroke-width="1.5" stroke-miterlimit="10"/>
</g>
<defs>
<clipPath id="clip0_9_42">
<rect width="1031" height="581" fill="white"/>
</clipPath>
</defs>
</svg>
