<svg width="739" height="251" viewBox="0 0 739 251" fill="none" xmlns="http://www.w3.org/2000/svg">
<g clip-path="url(#clip0_2_5)">
<path d="M666.75 248.82H71.3998C50.7498 248.82 32.9498 234.85 28.8098 215.4L2.38978 91.31C-1.02022 66.47 18.5898 44.21 44.6298 43.37L691.74 22.37C718.03 22.74 738.42 44.31 735.99 69.18L710.44 213.36C706.81 233.84 688.35 248.82 666.75 248.82Z" stroke="black" stroke-width="4" stroke-miterlimit="10"/>
<path d="M657.83 228.45H80.3199C60.2899 228.45 43.0299 214.36 39.0099 194.74L13.3699 69.55C10.0599 44.49 29.0799 22.04 54.3499 21.18L682.08 0C707.58 0.38 727.36 22.13 725 47.23L700.22 192.68C696.7 213.34 678.79 228.45 657.84 228.45H657.83Z" fill="#802E2E"/>
</g>
<defs>
<clipPath id="clip0_2_5">
<rect width="738.19" height="250.82" fill="white"/>
</clipPath>
</defs>
</svg>
