<svg width="302" height="61" viewBox="0 0 302 61" fill="none" xmlns="http://www.w3.org/2000/svg">
<g clip-path="url(#clip0_6_2)">
<path d="M284.48 0H17.26C7.72757 0 0 7.72757 0 17.26V42.97C0 52.5024 7.72757 60.23 17.26 60.23H284.48C294.012 60.23 301.74 52.5024 301.74 42.97V17.26C301.74 7.72757 294.012 0 284.48 0Z" fill="#5E5E5E"/>
<path d="M280.75 3.08997H21C11.462 3.08997 3.72998 10.822 3.72998 20.36V39.88C3.72998 49.4179 11.462 57.15 21 57.15H280.75C290.288 57.15 298.02 49.4179 298.02 39.88V20.36C298.02 10.822 290.288 3.08997 280.75 3.08997Z" stroke="#1F1F1F" stroke-miterlimit="10" stroke-dasharray="4 4"/>
</g>
<defs>
<clipPath id="clip0_6_2">
<rect width="301.74" height="60.23" fill="white"/>
</clipPath>
</defs>
</svg>
